<mxfile host="app.diagrams.net" modified="2021-09-27T06:41:48.449Z" agent="5.0 (Macintosh; Intel Mac OS X 10_15_7) AppleWebKit/537.36 (KHTML, like Gecko) Chrome/93.0.4577.63 Safari/537.36" etag="QhRB2D9MYXfHR8A0Ljhn" version="14.8.0" type="github">
  <diagram id="4gKkVRzwga2e37ouDqEi" name="第 1 页">
    <mxGraphModel dx="1555" dy="1470" grid="1" gridSize="10" guides="1" tooltips="1" connect="1" arrows="1" fold="1" page="1" pageScale="1" pageWidth="827" pageHeight="1169" math="0" shadow="0">
      <root>
        <mxCell id="0" />
        <mxCell id="1" parent="0" />
        <mxCell id="a1XltztH9Y2CzawYhAkj-4" style="edgeStyle=orthogonalEdgeStyle;rounded=0;orthogonalLoop=1;jettySize=auto;html=1;exitX=1;exitY=0.5;exitDx=0;exitDy=0;entryX=0;entryY=0.5;entryDx=0;entryDy=0;" edge="1" parent="1" source="a1XltztH9Y2CzawYhAkj-1" target="a1XltztH9Y2CzawYhAkj-3">
          <mxGeometry relative="1" as="geometry" />
        </mxCell>
        <mxCell id="a1XltztH9Y2CzawYhAkj-1" value="&lt;pre style=&quot;background-color: #2b2b2b ; color: #a9b7c6 ; font-family: &amp;quot;menlo-regular&amp;quot; , monospace ; font-size: 12.0pt&quot;&gt;&lt;span style=&quot;color: #afbf7e&quot;&gt;destinationrule&lt;/span&gt;&lt;/pre&gt;" style="rounded=0;whiteSpace=wrap;html=1;" vertex="1" parent="1">
          <mxGeometry x="10" y="145" width="160" height="80" as="geometry" />
        </mxCell>
        <mxCell id="a1XltztH9Y2CzawYhAkj-2" value="1 get loadbalancers&amp;nbsp;&lt;br&gt;2 get outlierdetection&lt;br&gt;3 get peerauthentication&lt;br&gt;4 Create or Update Destinationrule" style="shape=document;whiteSpace=wrap;html=1;boundedLbl=1;" vertex="1" parent="1">
          <mxGeometry x="460" y="130" width="200" height="110" as="geometry" />
        </mxCell>
        <mxCell id="a1XltztH9Y2CzawYhAkj-14" style="edgeStyle=orthogonalEdgeStyle;curved=1;rounded=0;orthogonalLoop=1;jettySize=auto;html=1;exitX=1;exitY=0.5;exitDx=0;exitDy=0;entryX=0;entryY=0.5;entryDx=0;entryDy=0;" edge="1" parent="1" source="a1XltztH9Y2CzawYhAkj-3" target="a1XltztH9Y2CzawYhAkj-2">
          <mxGeometry relative="1" as="geometry" />
        </mxCell>
        <mxCell id="a1XltztH9Y2CzawYhAkj-3" value="&lt;pre style=&quot;background-color: #2b2b2b ; color: #a9b7c6 ; font-family: &amp;quot;menlo-regular&amp;quot; , monospace ; font-size: 12.0pt&quot;&gt;&lt;span style=&quot;color: #9876aa ; font-style: italic&quot;&gt;EndpointsKind&lt;/span&gt;&lt;/pre&gt;" style="rounded=0;whiteSpace=wrap;html=1;" vertex="1" parent="1">
          <mxGeometry x="250" y="155" width="140" height="60" as="geometry" />
        </mxCell>
        <mxCell id="a1XltztH9Y2CzawYhAkj-31" style="edgeStyle=orthogonalEdgeStyle;curved=1;rounded=0;orthogonalLoop=1;jettySize=auto;html=1;exitX=1;exitY=0.25;exitDx=0;exitDy=0;entryX=0;entryY=0.5;entryDx=0;entryDy=0;" edge="1" parent="1" source="a1XltztH9Y2CzawYhAkj-7" target="a1XltztH9Y2CzawYhAkj-8">
          <mxGeometry relative="1" as="geometry" />
        </mxCell>
        <mxCell id="a1XltztH9Y2CzawYhAkj-32" style="edgeStyle=orthogonalEdgeStyle;curved=1;rounded=0;orthogonalLoop=1;jettySize=auto;html=1;exitX=1;exitY=0.5;exitDx=0;exitDy=0;" edge="1" parent="1" source="a1XltztH9Y2CzawYhAkj-7" target="a1XltztH9Y2CzawYhAkj-9">
          <mxGeometry relative="1" as="geometry" />
        </mxCell>
        <mxCell id="a1XltztH9Y2CzawYhAkj-33" style="edgeStyle=orthogonalEdgeStyle;curved=1;rounded=0;orthogonalLoop=1;jettySize=auto;html=1;exitX=1;exitY=0.75;exitDx=0;exitDy=0;entryX=0;entryY=0.5;entryDx=0;entryDy=0;" edge="1" parent="1" source="a1XltztH9Y2CzawYhAkj-7" target="a1XltztH9Y2CzawYhAkj-10">
          <mxGeometry relative="1" as="geometry" />
        </mxCell>
        <mxCell id="a1XltztH9Y2CzawYhAkj-7" value="&lt;pre style=&quot;background-color: #2b2b2b ; color: #a9b7c6 ; font-family: &amp;#34;menlo-regular&amp;#34; , monospace ; font-size: 12.0pt&quot;&gt;&lt;span style=&quot;color: #afbf7e&quot;&gt;authorizationpolicy&lt;/span&gt;&lt;/pre&gt;" style="rounded=0;whiteSpace=wrap;html=1;" vertex="1" parent="1">
          <mxGeometry x="-10" y="455" width="200" height="90" as="geometry" />
        </mxCell>
        <mxCell id="a1XltztH9Y2CzawYhAkj-15" style="edgeStyle=orthogonalEdgeStyle;curved=1;rounded=0;orthogonalLoop=1;jettySize=auto;html=1;exitX=1;exitY=0.5;exitDx=0;exitDy=0;entryX=0;entryY=0.5;entryDx=0;entryDy=0;" edge="1" parent="1" source="a1XltztH9Y2CzawYhAkj-8" target="a1XltztH9Y2CzawYhAkj-11">
          <mxGeometry relative="1" as="geometry" />
        </mxCell>
        <mxCell id="a1XltztH9Y2CzawYhAkj-17" style="edgeStyle=orthogonalEdgeStyle;curved=1;rounded=0;orthogonalLoop=1;jettySize=auto;html=1;exitX=1;exitY=0.75;exitDx=0;exitDy=0;" edge="1" parent="1" source="a1XltztH9Y2CzawYhAkj-8" target="a1XltztH9Y2CzawYhAkj-13">
          <mxGeometry relative="1" as="geometry" />
        </mxCell>
        <mxCell id="a1XltztH9Y2CzawYhAkj-8" value="&lt;pre style=&quot;background-color: #2b2b2b ; color: #a9b7c6 ; font-family: &amp;#34;menlo-regular&amp;#34; , monospace ; font-size: 12.0pt&quot;&gt;&lt;span style=&quot;color: #9876aa ; font-style: italic&quot;&gt;MicroServicePolicyKind&lt;/span&gt;&lt;/pre&gt;" style="rounded=0;whiteSpace=wrap;html=1;" vertex="1" parent="1">
          <mxGeometry x="240" y="310" width="220" height="80" as="geometry" />
        </mxCell>
        <mxCell id="a1XltztH9Y2CzawYhAkj-21" style="edgeStyle=orthogonalEdgeStyle;curved=1;rounded=0;orthogonalLoop=1;jettySize=auto;html=1;exitX=1;exitY=0.25;exitDx=0;exitDy=0;entryX=0;entryY=0.5;entryDx=0;entryDy=0;" edge="1" parent="1" source="a1XltztH9Y2CzawYhAkj-9" target="a1XltztH9Y2CzawYhAkj-19">
          <mxGeometry relative="1" as="geometry" />
        </mxCell>
        <mxCell id="a1XltztH9Y2CzawYhAkj-22" style="edgeStyle=orthogonalEdgeStyle;curved=1;rounded=0;orthogonalLoop=1;jettySize=auto;html=1;exitX=1;exitY=0.75;exitDx=0;exitDy=0;entryX=0;entryY=0.5;entryDx=0;entryDy=0;" edge="1" parent="1" source="a1XltztH9Y2CzawYhAkj-9" target="a1XltztH9Y2CzawYhAkj-20">
          <mxGeometry relative="1" as="geometry" />
        </mxCell>
        <mxCell id="a1XltztH9Y2CzawYhAkj-9" value="&lt;pre style=&quot;background-color: #2b2b2b ; color: #a9b7c6 ; font-family: &amp;#34;menlo-regular&amp;#34; , monospace ; font-size: 12.0pt&quot;&gt;&lt;span style=&quot;color: #9876aa ; font-style: italic&quot;&gt;MicroServicetKind&lt;/span&gt;&lt;/pre&gt;" style="rounded=0;whiteSpace=wrap;html=1;" vertex="1" parent="1">
          <mxGeometry x="250" y="460" width="220" height="80" as="geometry" />
        </mxCell>
        <mxCell id="a1XltztH9Y2CzawYhAkj-27" style="edgeStyle=orthogonalEdgeStyle;curved=1;rounded=0;orthogonalLoop=1;jettySize=auto;html=1;exitX=1;exitY=0.25;exitDx=0;exitDy=0;" edge="1" parent="1" source="a1XltztH9Y2CzawYhAkj-10" target="a1XltztH9Y2CzawYhAkj-25">
          <mxGeometry relative="1" as="geometry" />
        </mxCell>
        <mxCell id="a1XltztH9Y2CzawYhAkj-28" style="edgeStyle=orthogonalEdgeStyle;curved=1;rounded=0;orthogonalLoop=1;jettySize=auto;html=1;exitX=1;exitY=0.75;exitDx=0;exitDy=0;entryX=0;entryY=0.5;entryDx=0;entryDy=0;" edge="1" parent="1" source="a1XltztH9Y2CzawYhAkj-10" target="a1XltztH9Y2CzawYhAkj-26">
          <mxGeometry relative="1" as="geometry" />
        </mxCell>
        <mxCell id="a1XltztH9Y2CzawYhAkj-10" value="&lt;pre style=&quot;background-color: #2b2b2b ; color: #a9b7c6 ; font-family: &amp;#34;menlo-regular&amp;#34; , monospace ; font-size: 12.0pt&quot;&gt;&lt;span style=&quot;color: #9876aa ; font-style: italic&quot;&gt;ConfigMapKind&lt;/span&gt;&lt;/pre&gt;" style="rounded=0;whiteSpace=wrap;html=1;" vertex="1" parent="1">
          <mxGeometry x="240" y="650" width="220" height="80" as="geometry" />
        </mxCell>
        <mxCell id="a1XltztH9Y2CzawYhAkj-11" value="create authorizationpolicy" style="shape=document;whiteSpace=wrap;html=1;boundedLbl=1;" vertex="1" parent="1">
          <mxGeometry x="540" y="240" width="120" height="80" as="geometry" />
        </mxCell>
        <mxCell id="a1XltztH9Y2CzawYhAkj-13" value="1 create authorizationpolicy&lt;br&gt;2 sync microservicepolicy status&amp;nbsp;" style="shape=document;whiteSpace=wrap;html=1;boundedLbl=1;" vertex="1" parent="1">
          <mxGeometry x="530" y="330" width="140" height="90" as="geometry" />
        </mxCell>
        <mxCell id="a1XltztH9Y2CzawYhAkj-16" value="isGateway" style="text;html=1;strokeColor=none;fillColor=none;align=center;verticalAlign=middle;whiteSpace=wrap;rounded=0;" vertex="1" parent="1">
          <mxGeometry x="470" y="260" width="40" height="20" as="geometry" />
        </mxCell>
        <mxCell id="a1XltztH9Y2CzawYhAkj-19" value="create pr update authorizationpolicy" style="shape=document;whiteSpace=wrap;html=1;boundedLbl=1;" vertex="1" parent="1">
          <mxGeometry x="560" y="430" width="120" height="80" as="geometry" />
        </mxCell>
        <mxCell id="a1XltztH9Y2CzawYhAkj-20" value="delete authorizationpolicy" style="shape=document;whiteSpace=wrap;html=1;boundedLbl=1;" vertex="1" parent="1">
          <mxGeometry x="560" y="530" width="120" height="80" as="geometry" />
        </mxCell>
        <mxCell id="a1XltztH9Y2CzawYhAkj-23" value="auth .approved enable" style="text;html=1;strokeColor=none;fillColor=none;align=center;verticalAlign=middle;whiteSpace=wrap;rounded=0;" vertex="1" parent="1">
          <mxGeometry x="445" y="440" width="110" height="30" as="geometry" />
        </mxCell>
        <mxCell id="a1XltztH9Y2CzawYhAkj-24" value="auth .approved disable" style="text;html=1;strokeColor=none;fillColor=none;align=center;verticalAlign=middle;whiteSpace=wrap;rounded=0;" vertex="1" parent="1">
          <mxGeometry x="470" y="500" width="110" height="30" as="geometry" />
        </mxCell>
        <mxCell id="a1XltztH9Y2CzawYhAkj-25" value="&lt;span&gt;create pr update authorizationpolicy for gateway&lt;/span&gt;" style="shape=document;whiteSpace=wrap;html=1;boundedLbl=1;" vertex="1" parent="1">
          <mxGeometry x="550" y="620" width="120" height="80" as="geometry" />
        </mxCell>
        <mxCell id="a1XltztH9Y2CzawYhAkj-26" value="&lt;span style=&quot;color: rgb(0 , 0 , 0) ; font-family: &amp;#34;helvetica&amp;#34; ; font-size: 12px ; font-style: normal ; font-weight: 400 ; letter-spacing: normal ; text-align: center ; text-indent: 0px ; text-transform: none ; word-spacing: 0px ; background-color: rgb(248 , 249 , 250) ; display: inline ; float: none&quot;&gt;delete authorizationpolicy for gateway&lt;/span&gt;" style="shape=document;whiteSpace=wrap;html=1;boundedLbl=1;" vertex="1" parent="1">
          <mxGeometry x="550" y="720" width="120" height="80" as="geometry" />
        </mxCell>
        <mxCell id="a1XltztH9Y2CzawYhAkj-29" value="&lt;meta charset=&quot;utf-8&quot;&gt;&lt;span style=&quot;color: rgb(0, 0, 0); font-family: helvetica; font-size: 12px; font-style: normal; font-weight: 400; letter-spacing: normal; text-align: center; text-indent: 0px; text-transform: none; word-spacing: 0px; background-color: rgb(248, 249, 250); display: inline; float: none;&quot;&gt;auth .approved enable&lt;/span&gt;" style="text;whiteSpace=wrap;html=1;" vertex="1" parent="1">
          <mxGeometry x="430" y="630" width="140" height="30" as="geometry" />
        </mxCell>
        <mxCell id="a1XltztH9Y2CzawYhAkj-30" value="auth .approved disable" style="text;html=1;strokeColor=none;fillColor=none;align=center;verticalAlign=middle;whiteSpace=wrap;rounded=0;" vertex="1" parent="1">
          <mxGeometry x="450" y="700" width="110" height="30" as="geometry" />
        </mxCell>
      </root>
    </mxGraphModel>
  </diagram>
</mxfile>
